# File created by Blade
# Date/Time:  Thu Jan 22 19:08:58 2015
# Frame Rate: 120.000 fps
#------------------------------------------------------
:FULLY-SPECIFIED
:DEGREES
1716
root -2.576979 32.900780 -0.189884 7.716940 -0.516215 2.692872
RightUpLeg -0.704405 -9.630590 -2.926839
RightLeg -0.487630 -0.000000 0.000000
RightFoot -13.018103 -6.373517 4.143967
RightToeBase 5.756021 -0.000000 -0.000000
LeftUpLeg -1.359217 4.075117 3.305049
LeftLeg 1.220699 -0.000000 -0.000000
LeftFoot -11.267299 0.567482 -11.608768
LeftToeBase 7.938598 -0.000000 -0.000000
Spine -13.771730 -1.528460 -2.241548
RightShoulder 3.407511 15.079510 -30.553824
RightArm 74.567018 -13.049874 60.379982
RightForeArm -17.790182 -0.000000 13.726215
RightHand 9.477368 -0.000000 5.409396
RightHandThumb1 -24.326973 -0.000000 -32.862282
LeftShoulder -6.037712 -17.792128 32.907388
LeftArm 72.189688 17.785951 -60.623488
LeftForeArm 26.334725 -0.000000 8.091704
LeftHand -3.491962 -0.000000 -7.374281
LeftHandThumb1 -26.253704 0.000000 33.147579
Head -1.186150 3.095452 -1.026229
1717
root -2.577149 32.900980 -0.192502 7.732348 -0.559478 2.693029
RightUpLeg -0.730439 -9.606945 -2.926093
RightLeg -0.493022 -0.000000 0.000000
RightFoot -13.004465 -6.358257 4.167970
RightToeBase 5.716781 -0.000000 -0.000000
LeftUpLeg -1.362668 4.090976 3.300506
LeftLeg 1.205302 -0.000000 -0.000000
LeftFoot -11.264602 0.583907 -11.617132
LeftToeBase 7.930405 -0.000000 -0.000000
Spine -13.782525 -1.519864 -2.220996
RightShoulder 3.262070 14.880222 -30.590625
RightArm 74.395046 -12.746487 60.209365
RightForeArm -17.705701 -0.000000 13.661835
RightHand 9.546668 -0.000000 5.457991
RightHandThumb1 -24.326973 -0.000000 -32.862282
LeftShoulder -6.151294 -17.553844 32.835195
LeftArm 72.085421 17.493961 -59.871194
LeftForeArm 26.187475 0.000000 8.104719
LeftHand -3.418312 -0.000000 -7.536927
LeftHandThumb1 -26.253704 0.000000 33.147579
Head -1.174574 3.067831 -1.031632
1718
root -2.578161 32.901226 -0.194723 7.754122 -0.602044 2.687166
RightUpLeg -0.762039 -9.555100 -2.919205
RightLeg -0.498736 -0.000000 0.000000
RightFoot -13.003562 -6.367885 4.170682
RightToeBase 5.769453 -0.000000 -0.000000
LeftUpLeg -1.376636 4.134415 3.302279
LeftLeg 1.198397 -0.000000 -0.000000
LeftFoot -11.261866 0.582665 -11.622581
LeftToeBase 7.940450 -0.000000 -0.000000
Spine -13.811849 -1.529713 -2.183732
RightShoulder 3.156655 14.689214 -30.639158
RightArm 74.155454 -12.419958 60.017723
RightForeArm -17.671935 0.000000 13.656449
RightHand 9.583296 0.000000 5.626928
RightHandThumb1 -24.326973 -0.000000 -32.862282
LeftShoulder -6.314240 -17.202022 32.779204
LeftArm 71.979496 17.097425 -59.291084
LeftForeArm 25.925093 -0.000000 8.116007
LeftHand -3.728493 -0.000000 -7.585299
LeftHandThumb1 -26.253704 0.000000 33.147579
Head -1.139857 3.136393 -1.045287
1719
root -2.578392 32.901332 -0.197510 7.763148 -0.646668 2.686305
RightUpLeg -0.782239 -9.524016 -2.918093
RightLeg -0.504860 -0.000000 0.000000
RightFoot -12.975328 -6.388937 4.098031
RightToeBase 5.684459 -0.000000 -0.000000
LeftUpLeg -1.375835 4.150718 3.299214
LeftLeg 1.186955 -0.000000 -0.000000
LeftFoot -11.258128 0.601310 -11.625790
LeftToeBase 7.955493 -0.000000 -0.000000
Spine -13.818100 -1.516899 -2.168214
RightShoulder 2.987122 14.425460 -30.679829
RightArm 73.957441 -12.066786 59.773633
RightForeArm -17.627509 -0.000000 13.683107
RightHand 9.473066 0.000000 5.037543
RightHandThumb1 -24.326973 -0.000000 -32.862282
LeftShoulder -6.457066 -16.924595 32.717163
LeftArm 71.804239 16.703800 -58.723735
LeftForeArm 25.771537 -0.000000 8.073081
LeftHand -3.636668 -0.000000 -7.457911
LeftHandThumb1 -26.253704 0.000000 33.147579
Head -1.100589 3.116910 -1.044274
1720
root -2.577519 32.901409 -0.197420 7.759310 -0.696178 2.687272
RightUpLeg -0.782214 -9.521313 -2.928735
RightLeg -0.517507 -0.000000 0.000000
RightFoot -12.973008 -6.307162 4.159340
RightToeBase 5.701782 -0.000000 -0.000000
LeftUpLeg -1.354443 4.182543 3.291612
LeftLeg 1.171498 -0.000000 -0.000000
LeftFoot -11.255009 0.621529 -11.625745
LeftToeBase 7.904301 -0.000000 -0.000000
Spine -13.814051 -1.514847 -2.138670
RightShoulder 2.828569 14.229211 -30.727972
RightArm 73.694627 -11.732147 59.586517
RightForeArm -17.690399 -0.000000 13.648245
RightHand 9.551904 -0.000000 5.116521
RightHandThumb1 -24.326973 -0.000000 -32.862282
LeftShoulder -6.617161 -16.585958 32.693414
LeftArm 71.538857 16.214509 -58.432412
LeftForeArm 26.085767 -0.000000 8.025127
LeftHand -3.515571 0.000000 -7.877746
LeftHandThumb1 -26.253704 0.000000 33.147579
Head -1.078022 3.127608 -1.086545
1721
root -2.577656 32.901640 -0.199414 7.768834 -0.737521 2.686978
RightUpLeg -0.798389 -9.488517 -2.930377
RightLeg -0.531247 -0.000000 0.000000
RightFoot -12.961537 -6.288350 4.148176
RightToeBase 5.881644 -0.000000 -0.000000
LeftUpLeg -1.356840 4.202532 3.287213
LeftLeg 1.164929 -0.000000 -0.000000
LeftFoot -11.253043 0.635803 -11.634669
LeftToeBase 7.911326 -0.000000 -0.000000
Spine -13.816244 -1.525680 -2.112714
RightShoulder 2.670886 14.003915 -30.743605
RightArm 73.473307 -11.418809 59.190626
RightForeArm -17.768492 -0.000000 13.600797
RightHand 9.776694 0.000000 5.411968
RightHandThumb1 -24.326973 -0.000000 -32.862282
LeftShoulder -6.786929 -16.254353 32.653007
LeftArm 71.322808 15.778171 -57.872025
LeftForeArm 25.962271 -0.000000 7.973658
LeftHand -3.664619 -0.000000 -7.995313
LeftHandThumb1 -26.253704 0.000000 33.147579
Head -1.066758 3.144347 -1.113244
1722
root -2.577405 32.901971 -0.201560 7.783380 -0.791012 2.683327
RightUpLeg -0.826763 -9.433539 -2.930907
RightLeg -0.530837 -0.000000 0.000000
RightFoot -12.944826 -6.295862 4.145850
RightToeBase 5.700559 -0.000000 -0.000000
LeftUpLeg -1.362153 4.213184 3.283088
LeftLeg 1.162033 -0.000000 -0.000000
LeftFoot -11.263929 0.677604 -11.644295
LeftToeBase 7.943626 -0.000000 -0.000000
Spine -13.827667 -1.498085 -2.091586
RightShoulder 2.483820 13.761772 -30.768018
RightArm 73.232816 -11.098192 58.680081
RightForeArm -17.670200 0.000000 13.631712
RightHand 9.691053 -0.000000 5.279005
RightHandThumb1 -24.326973 -0.000000 -32.862282
LeftShoulder -6.925687 -15.959966 32.598989
LeftArm 71.055265 15.343544 -57.266701
LeftForeArm 25.795067 -0.000000 7.953923
LeftHand -3.621379 -0.000000 -7.969485
LeftHandThumb1 -26.253704 0.000000 33.147579
Head -1.040315 3.139431 -1.141079
1723
root -2.577269 32.902497 -0.202752 7.801202 -0.860582 2.677988
RightUpLeg -0.862071 -9.392724 -2.929263
RightLeg -0.530479 -0.000000 0.000000
RightFoot -12.936172 -6.266951 4.139774
RightToeBase 5.861775 -0.000000 -0.000000
LeftUpLeg -1.363077 4.260654 3.278070
LeftLeg 1.151020 -0.000000 -0.000000
LeftFoot -11.261167 0.694426 -11.667005
LeftToeBase 7.911008 -0.000000 -0.000000
Spine -13.844328 -1.438031 -2.077108
RightShoulder 2.284955 13.502800 -30.801556
RightArm 72.965045 -10.738852 58.277388
RightForeArm -17.548727 -0.000000 13.569975
RightHand 9.734994 -0.000000 5.517266
RightHandThumb1 -24.326973 -0.000000 -32.862282
LeftShoulder -7.063940 -15.631093 32.541690
LeftArm 70.821115 14.891572 -56.655012
LeftForeArm 25.787669 -0.000000 7.839841
LeftHand -3.522138 0.000000 -7.790643
LeftHandThumb1 -26.253704 0.000000 33.147579
Head -1.018038 3.116778 -1.161869
1724
root -2.577515 32.903097 -0.203861 7.808263 -0.919233 2.674890
RightUpLeg -0.883177 -9.354604 -2.931327
RightLeg -0.529387 -0.000000 0.000000
RightFoot -12.923909 -6.251584 4.130437
RightToeBase 5.740281 -0.000000 -0.000000
LeftUpLeg -1.363550 4.304328 3.273901
LeftLeg 1.157861 -0.000000 -0.000000
LeftFoot -11.269700 0.704248 -11.672063
LeftToeBase 7.934315 -0.000000 -0.000000
Spine -13.848975 -1.359103 -2.082561
RightShoulder 2.086877 13.217417 -30.806045
RightArm 72.645390 -10.326622 57.896700
RightForeArm -17.588665 -0.000000 13.539707
RightHand 9.983128 -0.000000 6.057023
RightHandThumb1 -24.326973 -0.000000 -32.862282
LeftShoulder -7.150367 -15.382632 32.491366
LeftArm 70.490037 14.444781 -56.040325
LeftForeArm 25.679245 -0.000000 7.779713
LeftHand -3.455197 -0.000000 -7.969735
LeftHandThumb1 -26.253704 0.000000 33.147579
Head -0.981341 3.055701 -1.149889
1725
root -2.577820 32.903882 -0.205433 7.814872 -0.953772 2.680429
RightUpLeg -0.887721 -9.352434 -2.935630
RightLeg -0.554758 -0.000000 0.000000
RightFoot -12.902095 -6.233346 4.120610
RightToeBase 5.753972 -0.000000 -0.000000
LeftUpLeg -1.372677 4.309494 3.264531
LeftLeg 1.171096 -0.000000 -0.000000
LeftFoot -11.268295 0.731382 -11.676100
LeftToeBase 7.911334 -0.000000 -0.000000
Spine -13.845235 -1.492420 -2.021606
RightShoulder 2.009833 12.950464 -30.816736
RightArm 72.431857 -9.927853 57.458009
RightForeArm -17.526017 -0.000000 13.484335
RightHand 9.964799 -0.000000 6.019927
RightHandThumb1 -24.326973 -0.000000 -32.862282
LeftShoulder -7.414414 -15.033981 32.460144
LeftArm 70.087909 13.982400 -55.365681
LeftForeArm 25.462677 -0.000000 7.843111
LeftHand -3.444966 0.000000 -8.178779
LeftHandThumb1 -26.253704 0.000000 33.147579
Head -0.968980 3.180906 -1.208815
